<svg width="128" height="121" viewBox="0 0 128 121" fill="none" xmlns="http://www.w3.org/2000/svg">
<path d="M29.9347 74.9689C34.1467 74.9689 37.5612 71.5544 37.5612 67.3425C37.5612 63.1305 34.1467 59.716 29.9347 59.716C25.7228 59.716 22.3083 63.1305 22.3083 67.3425C22.3083 71.5544 25.7228 74.9689 29.9347 74.9689Z" fill="#DD6B20"/>
<path d="M98.0838 74.9689C102.296 74.9689 105.71 71.5544 105.71 67.3425C105.71 63.1305 102.296 59.716 98.0838 59.716C93.8718 59.716 90.4573 63.1305 90.4573 67.3425C90.4573 71.5544 93.8718 74.9689 98.0838 74.9689Z" fill="#DD6B20"/>
<path d="M98.426 81.6176H88.3063C87.1086 81.6176 86.1797 82.5953 86.1797 83.7686C86.1797 95.9905 76.2311 105.939 64.0093 105.939C51.763 105.939 41.8388 95.9905 41.8388 83.7686C41.8388 82.5953 40.8855 81.6176 39.7122 81.6176H29.5681C28.3703 81.6176 27.417 82.5953 27.417 83.7686C27.417 103.935 43.8188 120.361 64.0093 120.361C84.1753 120.361 100.577 103.959 100.577 83.7686C100.577 82.5953 99.6238 81.6176 98.426 81.6176Z" fill="#DD6B20"/>
<path d="M127.759 54.7539L110.086 15.9373C106.199 5.76872 99.0616 0 90.4574 0H38.0745C26.366 0 21.3061 10.3641 18.9107 15.3506L0.28455 54.5584C-0.0576617 55.2428 -0.0821023 56.0494 0.162335 56.7583C0.431216 57.4672 0.944532 58.0538 1.62896 58.3716L9.93982 62.4048C10.6242 62.747 11.4064 62.7715 12.1886 62.5026C12.8731 62.2581 13.4597 61.7204 13.7775 61.0115L18.0062 52.114C18.3973 51.3074 19.2284 50.7696 20.1328 50.7696H54.0118C55.3074 50.7696 56.3584 51.8207 56.3584 53.1162V71.3757C56.3584 71.449 56.334 71.4979 56.334 71.5712V78.4154C56.334 82.5953 59.7561 85.993 63.936 85.993C68.1403 85.993 71.538 82.5953 71.538 78.4154V73.2334L71.5624 53.1406C71.5624 51.8451 72.6135 50.794 73.909 50.794H107.886C108.79 50.794 109.621 51.3318 110.012 52.1629L113.997 60.8648C114.632 62.2581 116.392 62.9181 117.761 62.307L126.292 58.5916C126.976 58.2738 127.563 57.6627 127.783 57.0027C128.076 56.245 128.076 55.4139 127.759 54.7539ZM25.3883 36.3967L32.0125 22.6349C34.9946 16.5973 36.9012 15.7173 37.7568 15.7173H90.653C93.1218 15.7173 95.1262 19.1639 96.1284 22.0971C96.1773 22.1949 96.2017 22.2927 96.2261 22.3904L102.606 36.4211L25.3883 36.3967Z" fill="#DD6B20"/>
</svg>
